<svg id="visual" viewBox="0 0 900 600" width="900" height="600" xmlns="http://www.w3.org/2000/svg" xmlns:xlink="http://www.w3.org/1999/xlink" version="1.1"><path d="M0 109L82 109L82 217L164 217L164 169L245 169L245 247L327 247L327 97L409 97L409 223L491 223L491 295L573 295L573 115L655 115L655 169L736 169L736 181L818 181L818 121L900 121L900 193L900 0L900 0L818 0L818 0L736 0L736 0L655 0L655 0L573 0L573 0L491 0L491 0L409 0L409 0L327 0L327 0L245 0L245 0L164 0L164 0L82 0L82 0L0 0Z" fill="#fa7268"></path><path d="M0 253L82 253L82 289L164 289L164 271L245 271L245 337L327 337L327 301L409 301L409 295L491 295L491 403L573 403L573 331L655 331L655 355L736 355L736 319L818 319L818 313L900 313L900 409L900 191L900 119L818 119L818 179L736 179L736 167L655 167L655 113L573 113L573 293L491 293L491 221L409 221L409 95L327 95L327 245L245 245L245 167L164 167L164 215L82 215L82 107L0 107Z" fill="#ea5e66"></path><path d="M0 391L82 391L82 451L164 451L164 421L245 421L245 403L327 403L327 439L409 439L409 427L491 427L491 457L573 457L573 445L655 445L655 493L736 493L736 397L818 397L818 391L900 391L900 481L900 407L900 311L818 311L818 317L736 317L736 353L655 353L655 329L573 329L573 401L491 401L491 293L409 293L409 299L327 299L327 335L245 335L245 269L164 269L164 287L82 287L82 251L0 251Z" fill="#d84a64"></path><path d="M0 493L82 493L82 505L164 505L164 511L245 511L245 493L327 493L327 475L409 475L409 529L491 529L491 505L573 505L573 535L655 535L655 541L736 541L736 481L818 481L818 481L900 481L900 523L900 479L900 389L818 389L818 395L736 395L736 491L655 491L655 443L573 443L573 455L491 455L491 425L409 425L409 437L327 437L327 401L245 401L245 419L164 419L164 449L82 449L82 389L0 389Z" fill="#c53762"></path><path d="M0 601L82 601L82 601L164 601L164 601L245 601L245 601L327 601L327 601L409 601L409 601L491 601L491 601L573 601L573 601L655 601L655 601L736 601L736 601L818 601L818 601L900 601L900 601L900 521L900 479L818 479L818 479L736 479L736 539L655 539L655 533L573 533L573 503L491 503L491 527L409 527L409 473L327 473L327 491L245 491L245 509L164 509L164 503L82 503L82 491L0 491Z" fill="#b0235f"></path></svg>