<svg id="visual" viewBox="0 0 900 600" width="900" height="600" xmlns="http://www.w3.org/2000/svg" xmlns:xlink="http://www.w3.org/1999/xlink" version="1.1"><g stroke-width="1" stroke-linejoin="bevel"><path d="M461 297L519 226L436 273Z" fill="#277297" stroke="#277297"></path><path d="M461 297L562 325L519 226Z" fill="#112e42" stroke="#112e42"></path><path d="M562 325L578 202L519 226Z" fill="#205a7a" stroke="#205a7a"></path><path d="M515 84L429 129L519 226Z" fill="#19435d" stroke="#19435d"></path><path d="M519 226L429 129L436 273Z" fill="#277297" stroke="#277297"></path><path d="M429 129L365 175L436 273Z" fill="#112e42" stroke="#112e42"></path><path d="M436 273L407 374L461 297Z" fill="#112e42" stroke="#112e42"></path><path d="M461 297L492 404L562 325Z" fill="#00101c" stroke="#00101c"></path><path d="M322 271L407 374L436 273Z" fill="#19435d" stroke="#19435d"></path><path d="M407 374L492 404L461 297Z" fill="#0c2435" stroke="#0c2435"></path><path d="M365 175L322 271L436 273Z" fill="#00101c" stroke="#00101c"></path><path d="M293 127L324 189L365 175Z" fill="#297ea6" stroke="#297ea6"></path><path d="M365 175L324 189L322 271Z" fill="#205a7a" stroke="#205a7a"></path><path d="M578 202L515 84L519 226Z" fill="#19435d" stroke="#19435d"></path><path d="M492 404L612 366L562 325Z" fill="#0c2435" stroke="#0c2435"></path><path d="M562 325L689 232L578 202Z" fill="#112e42" stroke="#112e42"></path><path d="M227 290L306 361L322 271Z" fill="#246688" stroke="#246688"></path><path d="M322 271L306 361L407 374Z" fill="#00101c" stroke="#00101c"></path><path d="M414 517L531 487L492 404Z" fill="#297ea6" stroke="#297ea6"></path><path d="M612 366L689 232L562 325Z" fill="#277297" stroke="#277297"></path><path d="M578 202L620 65L515 84Z" fill="#205a7a" stroke="#205a7a"></path><path d="M429 129L293 127L365 175Z" fill="#0c2435" stroke="#0c2435"></path><path d="M324 189L227 290L322 271Z" fill="#277297" stroke="#277297"></path><path d="M377 0L293 127L429 129Z" fill="#277297" stroke="#277297"></path><path d="M689 232L620 65L578 202Z" fill="#246688" stroke="#246688"></path><path d="M414 517L492 404L407 374Z" fill="#00101c" stroke="#00101c"></path><path d="M492 404L531 487L612 366Z" fill="#277297" stroke="#277297"></path><path d="M612 366L729 270L689 232Z" fill="#277297" stroke="#277297"></path><path d="M689 232L707 71L620 65Z" fill="#277297" stroke="#277297"></path><path d="M708 396L729 270L612 366Z" fill="#112e42" stroke="#112e42"></path><path d="M597 0L468 0L515 84Z" fill="#246688" stroke="#246688"></path><path d="M515 84L468 0L429 129Z" fill="#246688" stroke="#246688"></path><path d="M205 180L227 290L324 189Z" fill="#277297" stroke="#277297"></path><path d="M227 290L237 362L306 361Z" fill="#00101c" stroke="#00101c"></path><path d="M288 465L414 517L407 374Z" fill="#246688" stroke="#246688"></path><path d="M666 510L708 396L612 366Z" fill="#00101c" stroke="#00101c"></path><path d="M288 465L407 374L306 361Z" fill="#246688" stroke="#246688"></path><path d="M468 0L377 0L429 129Z" fill="#15384f" stroke="#15384f"></path><path d="M620 65L597 0L515 84Z" fill="#1d4e6b" stroke="#1d4e6b"></path><path d="M669 0L597 0L620 65Z" fill="#15384f" stroke="#15384f"></path><path d="M227 104L205 180L293 127Z" fill="#297ea6" stroke="#297ea6"></path><path d="M293 127L205 180L324 189Z" fill="#15384f" stroke="#15384f"></path><path d="M77 402L234 473L237 362Z" fill="#081a28" stroke="#081a28"></path><path d="M237 362L288 465L306 361Z" fill="#00101c" stroke="#00101c"></path><path d="M792 238L707 71L689 232Z" fill="#0c2435" stroke="#0c2435"></path><path d="M328 0L227 104L293 127Z" fill="#205a7a" stroke="#205a7a"></path><path d="M377 0L328 0L293 127Z" fill="#112e42" stroke="#112e42"></path><path d="M531 487L625 529L612 366Z" fill="#277297" stroke="#277297"></path><path d="M595 600L625 529L531 487Z" fill="#19435d" stroke="#19435d"></path><path d="M793 264L792 238L729 270Z" fill="#1d4e6b" stroke="#1d4e6b"></path><path d="M729 270L792 238L689 232Z" fill="#00101c" stroke="#00101c"></path><path d="M775 400L793 264L729 270Z" fill="#0c2435" stroke="#0c2435"></path><path d="M775 400L729 270L708 396Z" fill="#205a7a" stroke="#205a7a"></path><path d="M707 71L669 0L620 65Z" fill="#081a28" stroke="#081a28"></path><path d="M625 529L666 510L612 366Z" fill="#15384f" stroke="#15384f"></path><path d="M277 600L395 600L414 517Z" fill="#205a7a" stroke="#205a7a"></path><path d="M237 362L234 473L288 465Z" fill="#0c2435" stroke="#0c2435"></path><path d="M108 274L237 362L227 290Z" fill="#277297" stroke="#277297"></path><path d="M814 486L775 400L708 396Z" fill="#246688" stroke="#246688"></path><path d="M395 600L517 600L414 517Z" fill="#15384f" stroke="#15384f"></path><path d="M414 517L517 600L531 487Z" fill="#205a7a" stroke="#205a7a"></path><path d="M625 529L695 600L666 510Z" fill="#277297" stroke="#277297"></path><path d="M277 600L414 517L288 465Z" fill="#205a7a" stroke="#205a7a"></path><path d="M517 600L595 600L531 487Z" fill="#205a7a" stroke="#205a7a"></path><path d="M666 510L814 486L708 396Z" fill="#277297" stroke="#277297"></path><path d="M60 218L108 274L205 180Z" fill="#15384f" stroke="#15384f"></path><path d="M205 180L108 274L227 290Z" fill="#00101c" stroke="#00101c"></path><path d="M792 238L834 119L707 71Z" fill="#19435d" stroke="#19435d"></path><path d="M707 71L802 0L669 0Z" fill="#15384f" stroke="#15384f"></path><path d="M900 198L834 119L792 238Z" fill="#0c2435" stroke="#0c2435"></path><path d="M900 273L792 238L793 264Z" fill="#0c2435" stroke="#0c2435"></path><path d="M213 600L277 600L234 473Z" fill="#297ea6" stroke="#297ea6"></path><path d="M234 473L277 600L288 465Z" fill="#297ea6" stroke="#297ea6"></path><path d="M328 0L164 0L227 104Z" fill="#1d4e6b" stroke="#1d4e6b"></path><path d="M69 85L60 218L205 180Z" fill="#081a28" stroke="#081a28"></path><path d="M695 600L814 486L666 510Z" fill="#081a28" stroke="#081a28"></path><path d="M775 400L900 273L793 264Z" fill="#297ea6" stroke="#297ea6"></path><path d="M595 600L695 600L625 529Z" fill="#00101c" stroke="#00101c"></path><path d="M834 119L802 0L707 71Z" fill="#19435d" stroke="#19435d"></path><path d="M69 85L205 180L227 104Z" fill="#19435d" stroke="#19435d"></path><path d="M108 274L77 402L237 362Z" fill="#1d4e6b" stroke="#1d4e6b"></path><path d="M900 427L900 273L775 400Z" fill="#1d4e6b" stroke="#1d4e6b"></path><path d="M834 119L900 92L802 0Z" fill="#15384f" stroke="#15384f"></path><path d="M900 273L900 198L792 238Z" fill="#081a28" stroke="#081a28"></path><path d="M0 323L77 402L108 274Z" fill="#0c2435" stroke="#0c2435"></path><path d="M94 492L213 600L234 473Z" fill="#19435d" stroke="#19435d"></path><path d="M164 0L69 85L227 104Z" fill="#246688" stroke="#246688"></path><path d="M900 198L900 92L834 119Z" fill="#00101c" stroke="#00101c"></path><path d="M77 402L94 492L234 473Z" fill="#297ea6" stroke="#297ea6"></path><path d="M900 488L900 427L814 486Z" fill="#297ea6" stroke="#297ea6"></path><path d="M814 486L900 427L775 400Z" fill="#081a28" stroke="#081a28"></path><path d="M695 600L800 600L814 486Z" fill="#0c2435" stroke="#0c2435"></path><path d="M900 600L900 488L814 486Z" fill="#205a7a" stroke="#205a7a"></path><path d="M60 218L0 323L108 274Z" fill="#19435d" stroke="#19435d"></path><path d="M77 402L0 394L94 492Z" fill="#0c2435" stroke="#0c2435"></path><path d="M0 167L0 323L60 218Z" fill="#277297" stroke="#277297"></path><path d="M69 85L0 167L60 218Z" fill="#277297" stroke="#277297"></path><path d="M164 0L61 0L69 85Z" fill="#15384f" stroke="#15384f"></path><path d="M69 85L0 129L0 167Z" fill="#277297" stroke="#277297"></path><path d="M900 92L900 0L802 0Z" fill="#081a28" stroke="#081a28"></path><path d="M0 0L0 129L69 85Z" fill="#277297" stroke="#277297"></path><path d="M0 323L0 394L77 402Z" fill="#15384f" stroke="#15384f"></path><path d="M61 0L0 0L69 85Z" fill="#1d4e6b" stroke="#1d4e6b"></path><path d="M94 492L61 600L213 600Z" fill="#15384f" stroke="#15384f"></path><path d="M0 538L61 600L94 492Z" fill="#277297" stroke="#277297"></path><path d="M800 600L900 600L814 486Z" fill="#205a7a" stroke="#205a7a"></path><path d="M0 394L0 538L94 492Z" fill="#246688" stroke="#246688"></path><path d="M0 538L0 600L61 600Z" fill="#00101c" stroke="#00101c"></path></g></svg>